<svg width="77" height="88" viewBox="0 0 77 88" fill="none" xmlns="http://www.w3.org/2000/svg">
<g clip-path="url(#clip0_2_3300)">
<path d="M35.4696 50.0003H24.8443H24.4743C24.3759 50.0003 24.2782 50 24.181 49.9993C23.6697 50.0084 23.1585 49.9701 22.6542 49.885C22.3091 49.8202 21.9748 49.7074 21.661 49.5498C21.0383 49.2339 20.5324 48.728 20.2164 48.1053C20.0588 47.7916 19.946 47.4573 19.8814 47.1122C19.7908 46.5592 19.7522 45.999 19.7662 45.4388V45.1455C19.7662 45.0714 19.7662 44.9967 19.7662 44.9216V12.079C19.7662 12.0038 19.7662 11.9292 19.7662 11.8551C19.7662 11.7566 19.7662 11.6588 19.7662 11.5618C19.7522 11.0016 19.7908 10.4414 19.8814 9.88841C19.946 9.54332 20.0588 9.20902 20.2164 8.89531C20.5323 8.27275 21.0382 7.7669 21.6607 7.45101C21.9745 7.29341 22.3088 7.18058 22.6539 7.11581C23.0083 7.05129 23.3673 7.01567 23.7274 7.00931C23.9896 7.00121 24.3192 7.00031 24.618 7.00031H24.8443H33.7169C33.7115 7.18951 33.7037 7.37771 33.703 7.56931V7.72151V7.86431V8.00031H24.8443H24.7357H24.618C24.3297 8.00031 24.0113 8.00091 23.758 8.00881C23.452 8.01332 23.1469 8.04292 22.8457 8.09731C22.5918 8.14419 22.3457 8.22663 22.1148 8.34221C21.6803 8.56211 21.3274 8.91497 21.1073 9.34941C20.992 9.58005 20.9097 9.8258 20.8629 10.0794C20.7851 10.5705 20.7527 11.0678 20.7662 11.5649V11.8549V12.0788V44.9216V45.1421V45.438C20.7528 45.934 20.7852 46.4302 20.8629 46.9203C20.9096 47.1743 20.9919 47.4205 21.1075 47.6514C21.3273 48.0859 21.6802 48.4387 22.1146 48.6585C22.3456 48.774 22.5916 48.8564 22.8455 48.9033C23.2891 48.9757 23.7384 49.0077 24.1878 48.9991L24.4749 49.0003H24.8443H34.5357C34.7814 49.3893 35.0981 49.7285 35.4693 50.0003H35.4696ZM32.3521 8.58661C32.5944 8.58661 32.8269 8.68287 32.9982 8.85422C33.1696 9.02558 33.2658 9.25798 33.2658 9.50031C33.2658 9.74264 33.1696 9.97504 32.9982 10.1464C32.8269 10.3177 32.5944 10.414 32.3521 10.414H28.1795C27.9372 10.414 27.7048 10.3177 27.5334 10.1464C27.3621 9.97504 27.2658 9.74264 27.2658 9.50031C27.2658 9.25798 27.3621 9.02558 27.5334 8.85422C27.7048 8.68287 27.9372 8.58661 28.1795 8.58661H32.3521ZM32.4044 9.05031C32.3154 9.05031 32.2284 9.0767 32.1544 9.12615C32.0804 9.17559 32.0227 9.24587 31.9887 9.3281C31.9546 9.41033 31.9457 9.50081 31.9631 9.5881C31.9804 9.67539 32.0233 9.75557 32.0862 9.81851C32.1492 9.88144 32.2293 9.9243 32.3166 9.94166C32.4039 9.95903 32.4944 9.95011 32.5766 9.91605C32.6589 9.88199 32.7291 9.82432 32.7786 9.75032C32.828 9.67631 32.8544 9.58931 32.8544 9.50031C32.8544 9.38096 32.807 9.2665 32.7226 9.18211C32.6382 9.09772 32.5238 9.05031 32.4044 9.05031ZM49.2657 5.50031C49.2657 5.74261 49.1694 5.97498 48.9981 6.14633C48.8268 6.31767 48.5944 6.41396 48.3521 6.41401H44.1795C43.9372 6.41401 43.7048 6.31774 43.5334 6.14639C43.3621 5.97504 43.2658 5.74264 43.2658 5.50031C43.2658 5.25798 43.3621 5.02558 43.5334 4.85422C43.7048 4.68287 43.9372 4.58661 44.1795 4.58661H48.3521C48.5944 4.58663 48.8268 4.68291 48.9981 4.85426C49.1695 5.02561 49.2657 5.258 49.2657 5.50031ZM48.8541 5.50031C48.8541 5.41131 48.8277 5.3243 48.7783 5.2503C48.7288 5.1763 48.6586 5.11862 48.5763 5.08456C48.4941 5.0505 48.4036 5.04159 48.3163 5.05895C48.229 5.07632 48.1489 5.11918 48.0859 5.18211C48.023 5.24504 47.9801 5.32523 47.9628 5.41252C47.9454 5.49981 47.9543 5.59029 47.9884 5.67252C48.0224 5.75474 48.0801 5.82502 48.1541 5.87447C48.2281 5.92392 48.3151 5.95031 48.4041 5.95031C48.5235 5.95031 48.6379 5.9029 48.7223 5.81851C48.8067 5.73412 48.8541 5.61966 48.8541 5.50031ZM57.7657 7.86691V45.1337C57.7657 45.2325 57.7657 45.3304 57.7652 45.4277C57.7794 45.9892 57.7408 46.5509 57.65 47.1052C57.585 47.4511 57.4718 47.7861 57.3138 48.1006C56.9973 48.7249 56.4901 49.2321 55.8657 49.5485C55.5513 49.7065 55.2163 49.8197 54.8704 49.8845C54.5152 49.9492 54.1553 49.9849 53.7942 49.9913C53.532 49.9994 53.2024 50.0003 52.9036 50.0003H52.6743H39.8568H39.4857C39.387 50.0003 39.289 50 39.1917 49.9993C38.7683 49.9997 38.3453 49.9721 37.9254 49.9169C37.8377 49.9046 37.7476 49.9015 37.6612 49.8847C37.3154 49.8199 36.9803 49.7067 36.6659 49.5487C36.3846 49.4038 36.1256 49.2191 35.8968 49.0003C35.8741 48.979 35.848 48.962 35.826 48.9403C35.5803 48.6943 35.375 48.411 35.2176 48.101C35.0596 47.7865 34.9464 47.4515 34.8814 47.1056C34.7905 46.5512 34.7517 45.9894 34.7657 45.4277C34.7657 45.3304 34.7657 45.2325 34.7657 45.1337V7.86691C34.7657 7.76801 34.7657 7.67011 34.7657 7.57281C34.7664 7.38101 34.773 7.19091 34.7784 7.00041C34.7826 6.62987 34.8169 6.26029 34.8809 5.89531C34.9461 5.54955 35.0595 5.21462 35.2176 4.90031C35.5339 4.27578 36.0412 3.76845 36.6657 3.45211C36.9801 3.29407 37.3152 3.18096 37.661 3.11611C38.0163 3.0514 38.3762 3.01569 38.7372 3.00931C38.9994 3.00121 39.329 3.00031 39.6278 3.00031H39.8571H52.6746H52.8614H53.0457C53.1443 3.00031 53.2422 3.00031 53.3399 3.00131C53.8524 2.99221 54.3645 3.03057 54.8699 3.11591C55.2158 3.18077 55.5508 3.29387 55.8652 3.45191C56.4899 3.76822 56.9974 4.27563 57.3138 4.90031C57.4718 5.21475 57.585 5.54977 57.65 5.89561C57.7409 6.44983 57.7797 7.01135 57.7657 7.57281V7.86691ZM56.7657 7.86691V7.71811V7.57531C56.7793 7.07732 56.7469 6.57915 56.669 6.08711C56.6219 5.83243 56.5393 5.58565 56.4234 5.35401C56.2028 4.91789 55.8486 4.56369 55.4124 4.34311C55.1809 4.22727 54.9341 4.14463 54.6795 4.09761C54.2348 4.02502 53.7844 3.99285 53.3338 4.00151L53.045 4.00031H52.8614H52.7689H39.8568H39.7468H39.6279C39.3393 4.00031 39.0212 4.00101 38.7679 4.00881C38.4608 4.01327 38.1546 4.04297 37.8524 4.09761C37.5977 4.14466 37.3509 4.22734 37.1192 4.34321C36.6833 4.5635 36.3292 4.91739 36.1087 5.35321C35.9927 5.58508 35.91 5.83214 35.8629 6.08711C35.8108 6.38881 35.7825 6.69416 35.7784 7.00031C35.7725 7.18731 35.7669 7.37351 35.7662 7.57611V7.72401V7.86921V45.1337V45.2765V45.4252C35.7527 45.9232 35.785 46.4213 35.8629 46.9133C35.91 47.168 35.9927 47.4149 36.1085 47.6466C36.329 48.0826 36.6831 48.4367 37.119 48.6573C37.3507 48.7732 37.5976 48.8559 37.8524 48.903C37.8717 48.9068 37.8931 48.9066 37.9124 48.9101C38.3377 48.9752 38.7676 49.0049 39.1978 48.9991L39.4859 49.0001H39.8565H52.785H52.9039C53.1925 49.0001 53.5106 48.9994 53.7639 48.9916C54.071 48.987 54.3772 48.9573 54.6794 48.9028C54.9341 48.8558 55.181 48.7731 55.4126 48.6572C55.8483 48.4365 56.2022 48.0824 56.4226 47.6466C56.5386 47.4148 56.6214 47.1677 56.6684 46.9128C56.7465 46.4207 56.7791 45.9224 56.7657 45.4243V45.2825V45.1312V7.86691Z" fill="#1D1D1F"/>
</g>
<path d="M2.19109 65.4648C2.57781 65.4648 2.89422 65.1484 2.89422 64.7617C2.89422 64.375 2.57781 64.0586 2.19109 64.0586C1.80437 64.0586 1.48797 64.375 1.48797 64.7617C1.48797 65.1484 1.80437 65.4648 2.19109 65.4648ZM1.67547 73H2.695V66.6836H1.67547V73ZM4.62578 73H5.68047V69.9824H7.81328C9.40117 69.9824 10.5262 68.8633 10.5262 67.2578V67.2461C10.5262 65.6406 9.40117 64.5449 7.81328 64.5449H4.62578V73ZM7.54375 65.4824C8.75078 65.4824 9.44805 66.1445 9.44805 67.2578V67.2695C9.44805 68.3828 8.75078 69.0449 7.54375 69.0449H5.68047V65.4824H7.54375ZM12.0644 73H13.0839V69.2617C13.0839 68.1543 13.7226 67.4746 14.7304 67.4746C15.7382 67.4746 16.207 68.0195 16.207 69.1562V73H17.2265V68.9102C17.2265 67.4102 16.4355 66.5723 15.0175 66.5723C14.0859 66.5723 13.4941 66.9648 13.1777 67.6328H13.0839V64.1758H12.0644V73ZM21.5479 73.1113C23.3467 73.1113 24.46 71.8691 24.46 69.8477V69.8359C24.46 67.8086 23.3467 66.5723 21.5479 66.5723C19.7491 66.5723 18.6358 67.8086 18.6358 69.8359V69.8477C18.6358 71.8691 19.7491 73.1113 21.5479 73.1113ZM21.5479 72.209C20.3526 72.209 19.6787 71.3359 19.6787 69.8477V69.8359C19.6787 68.3418 20.3526 67.4746 21.5479 67.4746C22.7432 67.4746 23.417 68.3418 23.417 69.8359V69.8477C23.417 71.3359 22.7432 72.209 21.5479 72.209ZM25.922 73H26.9416V69.2617C26.9416 68.1543 27.5802 67.4746 28.588 67.4746C29.5959 67.4746 30.0646 68.0195 30.0646 69.1562V73H31.0841V68.9102C31.0841 67.4102 30.2931 66.5723 28.8752 66.5723C27.9435 66.5723 27.3517 66.9648 27.0353 67.6328H26.9416V66.6836H25.922V73ZM35.388 73.1113C36.8762 73.1113 37.7786 72.2676 37.9954 71.4121L38.0071 71.3652H36.9876L36.9641 71.418C36.7942 71.7988 36.2669 72.2031 35.4114 72.2031C34.2864 72.2031 33.5657 71.4414 33.5364 70.1348H38.0833V69.7363C38.0833 67.8496 37.0403 66.5723 35.3235 66.5723C33.6067 66.5723 32.4934 67.9082 32.4934 69.8594V69.8652C32.4934 71.8457 33.5833 73.1113 35.388 73.1113ZM35.3177 67.4805C36.2493 67.4805 36.9407 68.0723 37.0462 69.3203H33.554C33.6653 68.1191 34.3802 67.4805 35.3177 67.4805ZM44.8628 73H45.9175V64.5449H44.8687L42.6187 66.1621V67.2754L44.7691 65.7168H44.8628V73ZM52.1022 73H53.1334V71.248H54.3346V70.3047H53.1334V64.5449H51.6041C50.4205 66.3086 49.1256 68.3711 47.983 70.2871V71.248H52.1022V73ZM49.0612 70.3105V70.2402C49.9811 68.6875 51.0885 66.9414 52.0377 65.5234H52.108V70.3105H49.0612ZM59.2333 73H60.288V69.9824H62.4208C64.0087 69.9824 65.1337 68.8633 65.1337 67.2578V67.2461C65.1337 65.6406 64.0087 64.5449 62.4208 64.5449H59.2333V73ZM62.1512 65.4824C63.3583 65.4824 64.0555 66.1445 64.0555 67.2578V67.2695C64.0555 68.3828 63.3583 69.0449 62.1512 69.0449H60.288V65.4824H62.1512ZM66.6133 73H67.6328V69.0859C67.6328 68.1602 68.3242 67.5449 69.2969 67.5449C69.5195 67.5449 69.7129 67.5684 69.9238 67.6035V66.6133C69.8242 66.5957 69.6074 66.5723 69.4141 66.5723C68.5586 66.5723 67.9668 66.959 67.7266 67.6211H67.6328V66.6836H66.6133V73ZM73.4835 73.1113C75.2823 73.1113 76.3956 71.8691 76.3956 69.8477V69.8359C76.3956 67.8086 75.2823 66.5723 73.4835 66.5723C71.6847 66.5723 70.5714 67.8086 70.5714 69.8359V69.8477C70.5714 71.8691 71.6847 73.1113 73.4835 73.1113ZM73.4835 72.209C72.2882 72.209 71.6144 71.3359 71.6144 69.8477V69.8359C71.6144 68.3418 72.2882 67.4746 73.4835 67.4746C74.6788 67.4746 75.3527 68.3418 75.3527 69.8359V69.8477C75.3527 71.3359 74.6788 72.209 73.4835 72.209Z" fill="#1D1D1F"/>
<path d="M29.3968 87H30.2659V81.5361H30.3441L34.1673 87H35.0218V79.9541H34.1527V85.4375H34.0745L30.2513 79.9541H29.3968V87ZM38.7797 87.0928C40.0199 87.0928 40.7719 86.3896 40.9525 85.6768L40.9623 85.6377H40.1127L40.0932 85.6816C39.9516 85.999 39.5121 86.3359 38.7992 86.3359C37.8617 86.3359 37.2611 85.7012 37.2367 84.6123H41.0258V84.2803C41.0258 82.708 40.1566 81.6436 38.726 81.6436C37.2953 81.6436 36.3676 82.7568 36.3676 84.3828V84.3877C36.3676 86.0381 37.2758 87.0928 38.7797 87.0928ZM38.7211 82.4004C39.4975 82.4004 40.0736 82.8936 40.1615 83.9336H37.2514C37.3441 82.9326 37.9398 82.4004 38.7211 82.4004ZM43.2798 87H44.1294L45.3013 82.9277H45.3794L46.5561 87H47.4106L48.8852 81.7363H48.0405L47.0054 85.9453H46.9272L45.7505 81.7363H44.9448L43.768 85.9453H43.6899L42.6548 81.7363H41.8052L43.2798 87Z" fill="#BF4800"/>
<defs>
<clipPath id="clip0_2_3300">
<rect width="40" height="54" fill="white" transform="translate(18.7656)"/>
</clipPath>
</defs>
</svg>
